<svg id="Capa_1" data-name="Capa 1" xmlns="http://www.w3.org/2000/svg" viewBox="0 0 479.47 411"><defs><style>.cls-1{fill:none;stroke:#fff5fd;stroke-miterlimit:10;stroke-width:14px;}.cls-2{font-size:117.57px;fill:#fff5fd;font-family:LEMONMILK-Bold, LEMON MILK;font-weight:700;}.cls-3{font-size:37.68px;fill:#ff73a2;font-family:LambresiaRegular, Lambresia;}</style></defs><title>burgerQueenLogoLight</title><polygon class="cls-1" points="192.85 82.03 192.85 24.18 217.73 60.34 240.54 15.51 262.67 59.48 287.55 25.05 287.55 82.03 192.85 82.03"/><path class="cls-1" d="M157.69,236.94S141.55,231.66,161,196c0,0,12-25,42.08-40.1,0,0,35.92-20.9,92.39,0,0,0,37.94,15.2,52.53,54.1,0,0,7.44,20.46-8.77,26.94Z" transform="translate(-9.54 -48)"/><path class="cls-1" d="M151.21,277.46s-4.86,30.8,24.31,34h154s21.88,0,17.83-30.79L346,274l-194.79.22Z" transform="translate(-9.54 -48)"/><rect class="cls-1" x="131.94" y="193.8" width="215.58" height="29.18" rx="9"/><text class="cls-2" transform="translate(0 375.52) scale(0.91 1)">BURGER</text><text class="cls-3" transform="translate(192.22 369.29)">Queen</text></svg>