<svg id="Capa_1" data-name="Capa 1" xmlns="http://www.w3.org/2000/svg" viewBox="0 0 362 470.84"><defs><style>.cls-1,.cls-3{fill:#fffb17;}.cls-1{stroke:#000;stroke-miterlimit:10;stroke-width:10px;}.cls-2{font-size:72.54px;fill:#fff;font-family:LEMONMILK-Bold, LEMON MILK;font-weight:700;}.cls-3{font-size:175.77px;font-family:BillionMiraclespersonaluse, Billion Miracles personal use;}.cls-4{letter-spacing:-0.01em;}.cls-5{letter-spacing:0em;}</style></defs><title>logo</title><polygon class="cls-1" points="100.58 99.37 100.58 21.07 142.84 70.02 181.59 9.33 219.16 68.84 261.43 22.24 261.43 99.37 100.58 99.37"/><path d="M69.14,255.2s2.43,21,17,24.46H412.37s18-4.2,18.44-23.76c0,0,7.55-135.54-181.07-135.54C249.74,120.36,69.14,106.18,69.14,255.2Z" transform="translate(-69 -7.67)"/><rect x="0.21" y="240.33" width="361.58" height="31.93" rx="9.25"/><path d="M69.14,343.31s2.43-21,17-24.46H412.37s18,4.2,18.44,23.76c0,0,7.55,135.54-181.07,135.54C249.74,478.15,69.14,492.33,69.14,343.31Z" transform="translate(-69 -7.67)"/><rect x="0.16" y="310.91" width="361.68" height="33.42" rx="12.13"/><rect y="277" width="362" height="27.33" rx="13.66"/><text class="cls-2" transform="translate(40.1 240.44) scale(0.91 1)">BURGER</text><text class="cls-3" transform="translate(31.69 430.81)">Q<tspan class="cls-4" x="98.61" y="0">u</tspan><tspan class="cls-5" x="152.6" y="0">e</tspan><tspan x="194.91" y="0">en</tspan></text></svg>